<svg width="21" height="20" viewBox="0 0 21 20" fill="none" xmlns="http://www.w3.org/2000/svg">
<g clip-path="url(#clip0_205_3249)">
<path d="M20.4165 10C20.4165 4.47715 15.9394 0 10.4165 0C4.89365 0 0.416504 4.47715 0.416504 10C0.416504 14.9912 4.07334 19.1283 8.854 19.8785V12.8906H6.31494V10H8.854V7.79688C8.854 5.29063 10.347 3.90625 12.6312 3.90625C13.7249 3.90625 14.8696 4.10156 14.8696 4.10156V6.5625H13.6087C12.3665 6.5625 11.979 7.3334 11.979 8.125V10H14.7524L14.3091 12.8906H11.979V19.8785C16.7597 19.1283 20.4165 14.9912 20.4165 10Z" fill="#C8A98E"/>
</g>
<defs>
<clipPath id="clip0_205_3249">
<rect x="0.416504" width="20" height="20" rx="10" fill="white"/>
</clipPath>
</defs>
</svg>
