<svg width="20" height="20" viewBox="0 0 20 20" fill="none" xmlns="http://www.w3.org/2000/svg">
<path d="M19.5297 5.8767C19.4837 4.81185 19.3188 4.08327 19.085 3.44676C18.8396 2.79023 18.5137 2.22978 17.9807 1.67734C17.4478 1.1249 16.9149 0.776621 16.2861 0.52442C15.6764 0.276221 14.9786 0.108086 13.9588 0.060048C12.9351 0.0120096 12.6092 0 10.0096 0C7.40628 0 7.08039 0.0120096 6.06052 0.060048C5.04064 0.108086 4.34284 0.280224 3.73322 0.52442C3.10059 0.780625 2.56382 1.1209 2.03471 1.67734C1.5056 2.23379 1.17204 2.79023 0.93049 3.44676C0.69661 4.08327 0.531743 4.81185 0.485734 5.8767C0.439725 6.94556 0.428223 7.28583 0.428223 10C0.428223 12.7182 0.439725 13.0584 0.485734 14.1233C0.531743 15.1882 0.69661 15.9167 0.93049 16.5532C1.17587 17.2098 1.50177 17.7702 2.03471 18.3227C2.56382 18.8791 3.10059 19.2234 3.72938 19.4756C4.339 19.7238 5.03681 19.8919 6.05668 19.94C7.08039 19.988 7.40628 20 10.0058 20C12.6092 20 12.9351 19.988 13.9549 19.94C14.9748 19.8919 15.6726 19.7198 16.2822 19.4756C16.911 19.2194 17.4478 18.8791 17.9769 18.3227C18.506 17.7662 18.8396 17.2098 19.0811 16.5532C19.3188 15.9167 19.4799 15.1882 19.5259 14.1233C19.5719 13.0544 19.5834 12.7142 19.5834 10C19.5834 7.28583 19.5757 6.94155 19.5297 5.8767ZM17.8082 14.0432C17.766 15.02 17.6088 15.5524 17.4785 15.9007C17.3059 16.3651 17.0951 16.7014 16.7577 17.0536C16.4203 17.4059 16.102 17.6181 15.6534 17.8062C15.316 17.9424 14.8061 18.1065 13.8744 18.1505C12.866 18.1986 12.5631 18.2106 10.002 18.2106C7.44079 18.2106 7.1379 18.1986 6.12953 18.1505C5.19401 18.1065 4.68407 17.9424 4.35051 17.8062C3.90575 17.6261 3.58369 17.4059 3.24629 17.0536C2.90889 16.7014 2.70568 16.3691 2.52548 15.9007C2.39512 15.5484 2.23792 15.016 2.19574 14.0432C2.14973 12.9904 2.13823 12.6741 2.13823 10C2.13823 7.32586 2.14973 7.00961 2.19574 5.95677C2.23792 4.97998 2.39512 4.44756 2.52548 4.09928C2.69801 3.63491 2.90889 3.29864 3.24629 2.94636C3.58369 2.59408 3.90192 2.38191 4.35051 2.19376C4.68791 2.05765 5.19784 1.89351 6.12953 1.84948C7.1379 1.80144 7.44079 1.78943 10.002 1.78943C12.5631 1.78943 12.866 1.80144 13.8744 1.84948C14.8099 1.89351 15.3199 2.05765 15.6534 2.19376C16.0982 2.3739 16.4203 2.59408 16.7577 2.94636C17.0951 3.29864 17.2983 3.63091 17.4785 4.09928C17.6088 4.45156 17.766 4.98399 17.8082 5.95677C17.8542 7.00961 17.8657 7.32586 17.8657 10C17.8657 12.6741 17.8504 12.9904 17.8082 14.0432Z" fill="#C8A98E"/>
<path d="M10.0021 4.85986C7.27987 4.85986 5.0791 7.1617 5.0791 9.99998C5.0791 12.8422 7.28371 15.1401 10.0021 15.1401C12.7205 15.1401 14.9251 12.8342 14.9251 9.99998C14.9251 7.1577 12.7243 4.85986 10.0021 4.85986ZM10.0021 13.3346C8.2384 13.3346 6.80828 11.8414 6.80828 9.99998C6.80828 8.1585 8.2384 6.66531 10.0021 6.66531C11.7658 6.66531 13.1959 8.1585 13.1959 9.99998C13.1959 11.8414 11.7658 13.3346 10.0021 13.3346Z" fill="#C8A98E"/>
<path d="M15.1165 5.86066C15.7518 5.86066 16.2668 5.32297 16.2668 4.6597C16.2668 3.99643 15.7518 3.45874 15.1165 3.45874C14.4813 3.45874 13.9663 3.99643 13.9663 4.6597C13.9663 5.32297 14.4813 5.86066 15.1165 5.86066Z" fill="#C8A98E"/>
<path d="M0.416504 10C0.416504 12.7182 0.428006 13.0584 0.474015 14.1233C0.520025 15.1882 0.684891 15.9167 0.918771 16.5532C1.16415 17.2098 1.49005 17.7702 2.02299 18.3227C2.5521 18.8751 3.08887 19.2234 3.71766 19.4756C4.32729 19.7238 5.02509 19.8919 6.04496 19.94C7.06867 19.988 7.39457 20 9.99409 20C12.5974 20 12.9233 19.988 13.9432 19.94C14.9631 19.8919 15.6609 19.7198 16.2705 19.4756C16.8993 19.2194 17.4361 18.8791 17.9652 18.3227C18.4943 17.7702 18.8279 17.2098 19.0694 16.5532C19.3071 15.9167 19.4681 15.1882 19.5142 14.1233C19.5602 13.0544 19.5717 12.7142 19.5717 10C19.5717 7.28183 19.5602 6.94155 19.5142 5.8767C19.4681 4.81185 19.3033 4.08327 19.0694 3.44676C18.824 2.79023 18.4981 2.22978 17.9652 1.67734C17.4399 1.1209 16.9031 0.776621 16.2743 0.52442C15.6647 0.276221 14.9669 0.108086 13.947 0.060048C12.9233 0.0120096 12.5974 0 9.99792 0C7.39457 0 7.06867 0.0120096 6.0488 0.060048C5.02893 0.108086 4.33112 0.280224 3.7215 0.52442C3.09271 0.780625 2.55593 1.1209 2.02683 1.67734C1.49772 2.23379 1.16415 2.79023 0.922605 3.44676C0.684891 4.08327 0.520025 4.81185 0.474015 5.8767C0.428006 6.94155 0.416504 7.28183 0.416504 10ZM2.14568 10C2.14568 7.32986 2.15719 7.00961 2.20319 5.95677C2.24537 4.97998 2.40257 4.44756 2.53293 4.09928C2.70546 3.63491 2.91634 3.29864 3.25374 2.94636C3.59114 2.59408 3.90937 2.38191 4.35796 2.19376C4.69536 2.05765 5.20529 1.89351 6.13698 1.84948C7.14535 1.80144 7.44824 1.78943 10.0094 1.78943C12.5706 1.78943 12.8735 1.80144 13.8819 1.84948C14.8174 1.89351 15.3273 2.05765 15.6609 2.19376C16.1056 2.3739 16.4277 2.59408 16.7651 2.94636C17.1025 3.29864 17.3057 3.63091 17.4859 4.09928C17.6163 4.45156 17.7735 4.98399 17.8156 5.95677C17.8617 7.00961 17.8732 7.32586 17.8732 10C17.8732 12.6741 17.8617 12.9904 17.8156 14.0432C17.7735 15.02 17.6163 15.5524 17.4859 15.9007C17.3134 16.3651 17.1025 16.7014 16.7651 17.0536C16.4277 17.4059 16.1095 17.6181 15.6609 17.8062C15.3235 17.9424 14.8135 18.1065 13.8819 18.1505C12.8735 18.1986 12.5706 18.2106 10.0094 18.2106C7.44824 18.2106 7.14535 18.1986 6.13698 18.1505C5.20146 18.1065 4.69153 17.9424 4.35796 17.8062C3.9132 17.6261 3.59114 17.4059 3.25374 17.0536C2.91634 16.7014 2.71313 16.3691 2.53293 15.9007C2.40257 15.5484 2.24537 15.016 2.20319 14.0432C2.15335 12.9904 2.14568 12.6701 2.14568 10Z" fill="#C8A98E"/>
</svg>
