<svg width="20" height="20" viewBox="0 0 20 20" fill="none" xmlns="http://www.w3.org/2000/svg">
<path d="M13.3337 6.66667L17.5003 2.5M13.3337 6.66667V3.33333M13.3337 6.66667H16.667M3.4317 3.33333H5.83272C6.51423 3.33333 7.12708 3.74825 7.38018 4.38102L8.2668 6.59756C8.53134 7.25892 8.27681 8.0145 7.66601 8.38098C7.01837 8.76957 6.76776 9.59783 7.19166 10.2229C7.88189 11.2408 8.75951 12.1184 9.77738 12.8087C10.4025 13.2326 11.2308 12.982 11.6193 12.3343C11.9858 11.7235 12.7414 11.469 13.4028 11.7335L15.6193 12.6201C16.2521 12.8732 16.667 13.4861 16.667 14.1676V16.5686C16.667 17.0367 16.4811 17.4855 16.1501 17.8165C15.8192 18.1474 15.3703 18.3333 14.9023 18.3333C11.4605 18.1242 8.21419 16.6626 5.77596 14.2244C3.33773 11.7861 1.87615 8.53987 1.66699 5.09804C1.66699 4.63001 1.85292 4.18115 2.18386 3.8502C2.51481 3.51926 2.96367 3.33333 3.4317 3.33333Z" stroke="#4B5563" stroke-width="1.5" stroke-linecap="round" stroke-linejoin="round"/>
</svg>
