<svg width="31" height="32" viewBox="0 0 31 32" fill="none" xmlns="http://www.w3.org/2000/svg">
<path d="M30.5809 9.40272C30.5073 7.69896 30.2435 6.53323 29.8693 5.51481C29.4767 4.46437 28.9553 3.56765 28.1026 2.68375C27.2499 1.79984 26.3972 1.24259 25.3911 0.839071C24.4157 0.441954 23.2992 0.172938 21.6674 0.0960769C20.0295 0.0192154 19.5081 0 15.3488 0C11.1835 0 10.662 0.0192154 9.03022 0.0960769C7.39843 0.172938 6.28194 0.448359 5.30655 0.839071C4.29434 1.249 3.4355 1.79343 2.58894 2.68375C1.74237 3.57406 1.20866 4.46437 0.822182 5.51481C0.447974 6.53323 0.184188 7.69896 0.110573 9.40272C0.0369584 11.1129 0.0185547 11.6573 0.0185547 16C0.0185547 20.3491 0.0369584 20.8935 0.110573 22.5973C0.184188 24.301 0.447974 25.4668 0.822182 26.4852C1.21479 27.5356 1.73623 28.4323 2.58894 29.3163C3.4355 30.2066 4.29434 30.7574 5.30041 31.1609C6.27581 31.558 7.3923 31.8271 9.02409 31.9039C10.662 31.9808 11.1835 32 15.3427 32C19.5081 32 20.0295 31.9808 21.6613 31.9039C23.2931 31.8271 24.4096 31.5516 25.385 31.1609C26.391 30.751 27.2499 30.2066 28.0964 29.3163C28.943 28.4259 29.4767 27.5356 29.8632 26.4852C30.2435 25.4668 30.5012 24.301 30.5748 22.5973C30.6484 20.8871 30.6668 20.3427 30.6668 16C30.6668 11.6573 30.6546 11.1065 30.5809 9.40272ZM27.8265 22.4692C27.759 24.032 27.5075 24.8839 27.2989 25.4412C27.0229 26.1841 26.6855 26.7222 26.1456 27.2858C25.6058 27.8495 25.0966 28.1889 24.3789 28.49C23.8391 28.7078 23.0232 28.9704 21.5325 29.0408C19.9191 29.1177 19.4344 29.1369 15.3366 29.1369C11.2387 29.1369 10.754 29.1177 9.14065 29.0408C7.64381 28.9704 6.82792 28.7078 6.29421 28.49C5.5826 28.2018 5.0673 27.8495 4.52746 27.2858C3.98762 26.7222 3.66248 26.1906 3.37416 25.4412C3.16558 24.8775 2.91407 24.0256 2.84659 22.4692C2.77297 20.7846 2.75457 20.2786 2.75457 16C2.75457 11.7214 2.77297 11.2154 2.84659 9.53082C2.91407 7.96797 3.16558 7.11609 3.37416 6.55885C3.65021 5.81585 3.98762 5.27782 4.52746 4.71417C5.0673 4.15052 5.57647 3.81105 6.29421 3.51001C6.83405 3.29223 7.64995 3.02962 9.14065 2.95917C10.754 2.88231 11.2387 2.86309 15.3366 2.86309C19.4344 2.86309 19.9191 2.88231 21.5325 2.95917C23.0293 3.02962 23.8452 3.29223 24.3789 3.51001C25.0905 3.79824 25.6058 4.15052 26.1456 4.71417C26.6855 5.27782 27.0106 5.80945 27.2989 6.55885C27.5075 7.1225 27.759 7.97438 27.8265 9.53082C27.9001 11.2154 27.9185 11.7214 27.9185 16C27.9185 20.2786 27.894 20.7846 27.8265 22.4692Z" fill="#1F170F"/>
<path d="M15.3367 7.77588C10.9812 7.77588 7.45996 11.4588 7.45996 16.0001C7.45996 20.5477 10.9873 24.2242 15.3367 24.2242C19.6861 24.2242 23.2135 20.5349 23.2135 16.0001C23.2135 11.4524 19.6923 7.77588 15.3367 7.77588ZM15.3367 21.3355C12.5148 21.3355 10.2266 18.9464 10.2266 16.0001C10.2266 13.0537 12.5148 10.6646 15.3367 10.6646C18.1586 10.6646 20.4468 13.0537 20.4468 16.0001C20.4468 18.9464 18.1586 21.3355 15.3367 21.3355Z" fill="#1F170F"/>
<path d="M23.5201 9.37701C24.5365 9.37701 25.3604 8.51671 25.3604 7.45547C25.3604 6.39424 24.5365 5.53394 23.5201 5.53394C22.5036 5.53394 21.6797 6.39424 21.6797 7.45547C21.6797 8.51671 22.5036 9.37701 23.5201 9.37701Z" fill="#1F170F"/>
<path d="M0 16C0 20.3491 0.0184037 20.8935 0.0920184 22.5973C0.165633 24.301 0.429419 25.4668 0.803627 26.4852C1.19624 27.5356 1.71768 28.4323 2.57038 29.3163C3.41695 30.2002 4.27579 30.7574 5.28186 31.1609C6.25725 31.558 7.37374 31.8271 9.00554 31.9039C10.6435 31.9808 11.1649 32 15.3241 32C19.4895 32 20.0109 31.9808 21.6427 31.9039C23.2745 31.8271 24.391 31.5516 25.3664 31.1609C26.3725 30.751 27.2313 30.2066 28.0779 29.3163C28.9245 28.4323 29.4582 27.5356 29.8446 26.4852C30.225 25.4668 30.4826 24.301 30.5562 22.5973C30.6299 20.8871 30.6483 20.3427 30.6483 16C30.6483 11.6509 30.6299 11.1065 30.5562 9.40272C30.4826 7.69896 30.2188 6.53323 29.8446 5.51481C29.452 4.46437 28.9306 3.56765 28.0779 2.68375C27.2374 1.79343 26.3786 1.24259 25.3725 0.839071C24.3971 0.441954 23.2807 0.172938 21.6489 0.0960769C20.0109 0.0192154 19.4895 0 15.3303 0C11.1649 0 10.6435 0.0192154 9.01167 0.0960769C7.37988 0.172938 6.26339 0.448359 5.28799 0.839071C4.28192 1.249 3.42308 1.79343 2.57652 2.68375C1.72995 3.57406 1.19624 4.46437 0.809762 5.51481C0.429419 6.53323 0.165633 7.69896 0.0920184 9.40272C0.0184037 11.1065 0 11.6509 0 16ZM2.76669 16C2.76669 11.7278 2.78509 11.2154 2.85871 9.53082C2.92619 7.96797 3.1777 7.11609 3.38628 6.55885C3.66233 5.81585 3.99973 5.27782 4.53957 4.71417C5.07942 4.15052 5.58858 3.81105 6.30633 3.51001C6.84617 3.29223 7.66207 3.02962 9.15276 2.95917C10.7662 2.88231 11.2508 2.86309 15.3487 2.86309C19.4466 2.86309 19.9312 2.88231 21.5446 2.95917C23.0414 3.02962 23.8573 3.29223 24.391 3.51001C25.1026 3.79824 25.6179 4.15052 26.1578 4.71417C26.6976 5.27782 27.0227 5.80945 27.3111 6.55885C27.5196 7.1225 27.7712 7.97438 27.8386 9.53082C27.9122 11.2154 27.9307 11.7214 27.9307 16C27.9307 20.2786 27.9122 20.7846 27.8386 22.4692C27.7712 24.032 27.5196 24.8839 27.3111 25.4412C27.035 26.1841 26.6976 26.7222 26.1578 27.2858C25.6179 27.8495 25.1088 28.1889 24.391 28.49C23.8512 28.7078 23.0353 28.9704 21.5446 29.0408C19.9312 29.1177 19.4466 29.1369 15.3487 29.1369C11.2508 29.1369 10.7662 29.1177 9.15276 29.0408C7.65593 28.9704 6.84003 28.7078 6.30633 28.49C5.59472 28.2018 5.07942 27.8495 4.53957 27.2858C3.99973 26.7222 3.6746 26.1906 3.38628 25.4412C3.1777 24.8775 2.92619 24.0256 2.85871 22.4692C2.77896 20.7846 2.76669 20.2722 2.76669 16Z" fill="#1F170F"/>
</svg>
