<svg width="21" height="20" viewBox="0 0 21 20" fill="none" xmlns="http://www.w3.org/2000/svg">
<g clip-path="url(#clip0_205_3244)">
<path fill-rule="evenodd" clip-rule="evenodd" d="M18.2418 3.42833C19.0985 3.65898 19.7739 4.33443 20.0046 5.19109C20.4329 6.75616 20.4164 10.0181 20.4164 10.0181C20.4164 10.0181 20.4164 13.2635 20.0046 14.8286C19.7739 15.6853 19.0985 16.3607 18.2418 16.5914C16.6767 17.0032 10.4165 17.0032 10.4165 17.0032C10.4165 17.0032 4.17267 17.0032 2.59112 16.5749C1.73446 16.3443 1.05901 15.6688 0.828364 14.8121C0.416504 13.2635 0.416504 10.0016 0.416504 10.0016C0.416504 10.0016 0.416504 6.75616 0.828364 5.19109C1.05901 4.33443 1.75093 3.6425 2.59112 3.41186C4.15619 3 10.4165 3 10.4165 3C10.4165 3 16.6767 3 18.2418 3.42833ZM13.629 10.0016L8.4231 13V7.00327L13.629 10.0016Z" fill="#C8A98E"/>
</g>
<defs>
<clipPath id="clip0_205_3244">
<rect x="0.416504" width="20" height="20" rx="6" fill="white"/>
</clipPath>
</defs>
</svg>
